<?xml version="1.0" standalone="no"?><!DOCTYPE svg PUBLIC "-//W3C//DTD SVG 1.1//EN" "http://www.w3.org/Graphics/SVG/1.1/DTD/svg11.dtd"><svg class="icon" width="200px" height="196.92px" viewBox="0 0 1040 1024" version="1.1" xmlns="http://www.w3.org/2000/svg"><path d="M1016.246154 512c0 278.449231-225.673846 504.123077-504.123077 504.123077S8 790.449231 8 512 233.673846 7.876923 512.123077 7.876923s504.123077 225.673846 504.123077 504.123077" fill="#5A89FF" /><path d="M787.815385 818.963692H355.923692c-13.075692 0-23.630769-10.555077-23.630769-23.630769V363.441231c0-13.075692 10.555077-23.630769 23.630769-23.630769H787.815385c13.075692 0 23.630769 10.555077 23.630769 23.630769v431.891692c0 13.075692-10.555077 23.630769-23.630769 23.630769z m-408.260923-47.261538H764.184615V387.072H379.554462v384.630154z" fill="#FFFFFF" /><path d="M260.061538 622.749538h-47.261538V244.420923c0-13.075692 10.555077-23.630769 23.630769-23.630769h378.328616v47.261538H260.061538v354.697846z" fill="#FFFFFF" /><path d="M572.066462 716.169846v-47.261538c47.812923 0 86.646154-38.833231 86.646153-86.646154s-38.833231-86.646154-86.646153-86.646154v-47.261538c73.806769 0 133.907692 60.100923 133.907692 133.907692s-60.100923 133.907692-133.907692 133.907692z" fill="#FFFFFF" /><path d="M572.066462 716.169846c-4.804923 0-9.609846-0.236308-14.336-0.787692l5.04123-47.025231c3.072 0.315077 6.144 0.472615 9.29477 0.472615v47.340308z" fill="#FFFFFF" /><path d="M504.797538 698.052923c-8.034462-4.647385-15.596308-10.24-22.528-16.462769l31.665231-35.052308c4.489846 4.017231 9.373538 7.640615 14.572308 10.633846l-23.709539 40.881231z m-55.138461-61.44c-3.780923-8.507077-6.695385-17.486769-8.664615-26.624l46.237538-9.767385c1.260308 5.907692 3.150769 11.657846 5.592615 17.171693l-43.165538 19.219692z m37.572923-72.388923l-46.237538-9.767385c1.890462-9.137231 4.804923-18.116923 8.585846-26.624l43.165538 19.219693c-2.363077 5.513846-4.253538 11.342769-5.513846 17.171692z m26.702769-46.237538l-31.744-35.052308c6.931692-6.222769 14.493538-11.815385 22.528-16.462769l23.788308 40.88123c-5.198769 2.993231-10.082462 6.537846-14.572308 10.633847z" fill="#FFFFFF" /><path d="M562.692923 496.088615l-4.962461-47.02523c4.726154-0.472615 9.531077-0.787692 14.25723-0.787693v47.261539c-3.072 0.078769-6.144 0.236308-9.294769 0.551384z" fill="#FFFFFF" /></svg>